HIERARCHY
ROOT hip
{
	OFFSET 0.000000 0.000000 0.000000
	CHANNELS 6 Xposition Yposition Zposition Xrotation Zrotation Yrotation 
	JOINT abdomen
	{
		OFFSET 0.000000 3.422050 0.000000
		CHANNELS 3 Xrotation Zrotation Yrotation 
		JOINT chest
		{
			OFFSET 0.000000 8.486693 -0.684411
			CHANNELS 3 Xrotation Zrotation Yrotation 
			JOINT neck
			{
				OFFSET 0.000000 10.266162 -0.273764
				CHANNELS 3 Xrotation Zrotation Yrotation 
				JOINT head
				{
					OFFSET 0.000000 3.148285 0.000000
					CHANNELS 3 Xrotation Zrotation Yrotation 
					End Site
					{
						OFFSET 0.000000 3.148289 0.000000
					}
				}
			}
			JOINT lCollar
			{
				OFFSET 3.422053 6.707223 -0.821293
				CHANNELS 3 Yrotation Zrotation Xrotation 
				JOINT lShldr
				{
					OFFSET 3.285171 0.000000 0.000000
					CHANNELS 3 Zrotation Yrotation Xrotation 
					JOINT lForeArm
					{
						OFFSET 10.129278 0.000000 0.000000
						CHANNELS 3 Yrotation Zrotation Xrotation 
						JOINT lHand
						{
							OFFSET 8.486692 0.000000 0.000000
							CHANNELS 3 Zrotation Yrotation Xrotation 
							End Site
							{
								OFFSET 4.106464 0.000000 0.000000
							}
						}
					}
				}
			}
			JOINT rCollar
			{
				OFFSET -3.558935 6.707223 -0.821293
				CHANNELS 3 Yrotation Zrotation Xrotation 
				JOINT rShldr
				{
					OFFSET -3.148289 0.000000 0.000000
					CHANNELS 3 Zrotation Yrotation Xrotation 
					JOINT rForeArm
					{
						OFFSET -10.266159 0.000000 0.000000
						CHANNELS 3 Yrotation Zrotation Xrotation 
						JOINT rHand
						{
							OFFSET -8.349810 0.000000 0.000000
							CHANNELS 3 Zrotation Yrotation Xrotation 
							End Site
							{
								OFFSET -4.106464 0.000000 0.000000
							}
						}
					}
				}
			}
		}
	}
	JOINT lThigh
	{
		OFFSET 5.338403 -1.642589 1.368821
		CHANNELS 3 Xrotation Zrotation Yrotation 
		JOINT lShin
		{
			OFFSET -2.053232 -20.121670 0.000000
			CHANNELS 3 Xrotation Zrotation Yrotation 
			JOINT lFoot
			{
				OFFSET 0.000000 -19.300380 -1.231939
				CHANNELS 3 Xrotation Yrotation Zrotation 
				End Site
				{
					OFFSET 0.000000 -2.463878 4.653993
				}
			}
		}
	}
	JOINT rThigh
	{
		OFFSET -5.338403 -1.642589 1.368821
		CHANNELS 3 Xrotation Zrotation Yrotation 
		JOINT rShin
		{
			OFFSET 2.053232 -20.121670 0.000000
			CHANNELS 3 Xrotation Zrotation Yrotation 
			JOINT rFoot
			{
				OFFSET 0.000000 -19.300380 -1.231939
				CHANNELS 3 Xrotation Yrotation Zrotation 
				End Site
				{
					OFFSET 0.000000 -2.463878 4.653993
				}
			}
		}
	}
}
MOTION
Frames: 20
Frame Time: 0.033264
-1.012264 7.823059 0.000000 -72.001060 0.000000 0.000000 41.314312 -0.788261 -0.392490 21.732264 -3.063488 -0.711087 5.305063 -20.173410 -9.014681 0.057719 -0.036694 -0.050728 -20.649605 -25.021229 -3.947484 -9.575203 -36.491089 -13.870562 -57.494305 -4.360387 -6.394248 -7.000325 0.000000 0.000000 28.291201 15.517286 -6.456243 33.487835 21.581306 -17.290442 65.996384 4.998151 -5.998523 6.996831 -0.000084 -0.141900 -15.796643 14.811826 14.341439 10.208740 -1.981909 -0.080483 13.611595 2.328721 5.489282 -45.881214 -18.374781 -0.031817 77.358597 2.288759 0.176950 15.037886 -1.633111 -5.026803 
-1.012264 7.823059 0.000000 -72.001060 0.000000 0.000000 41.314312 -0.788261 -0.392490 21.732264 -3.063488 -0.711087 5.353369 -20.304647 -9.084238 0.057719 -0.036694 -0.050728 -20.649605 -25.021227 -3.947484 -9.527745 -36.616524 -13.999340 -57.494305 -4.360387 -6.394248 -7.000325 0.000000 0.000000 28.291201 15.517286 -6.456243 33.305370 21.601721 -17.215286 65.996376 4.998150 -5.998523 6.996831 -0.000084 -0.141900 -15.796643 14.811826 14.341439 10.208740 -1.981909 -0.080483 13.611595 2.328721 5.489282 -45.881214 -18.374779 -0.031818 77.358597 2.288759 0.176950 15.037885 -1.633111 -5.026803 
-1.012264 7.823059 0.000000 -72.001060 0.000000 0.000000 41.314312 -0.788261 -0.392490 21.732264 -3.063488 -0.711087 5.401875 -20.435801 -9.153955 0.057719 -0.036694 -0.050728 -20.649605 -25.021227 -3.947484 -9.479867 -36.741840 -14.128425 -57.494305 -4.360387 -6.394248 -7.000325 0.000000 0.000000 28.291201 15.517286 -6.456243 33.122829 21.622364 -17.140160 65.996376 4.998150 -5.998523 6.996831 -0.000084 -0.141900 -15.796643 14.811826 14.341439 10.208740 -1.981909 -0.080483 13.611595 2.328721 5.489282 -45.881214 -18.374779 -0.031818 77.358597 2.288759 0.176950 15.037885 -1.633111 -5.026803 
-1.012264 7.823059 0.000000 -72.001060 0.000000 0.000000 41.314312 -0.788261 -0.392490 21.732264 -3.063488 -0.711087 5.450581 -20.566864 -9.223835 0.057719 -0.036694 -0.050728 -20.649605 -25.021227 -3.947484 -9.431570 -36.867035 -14.257822 -57.494305 -4.360387 -6.394248 -7.000325 0.000000 0.000000 28.291201 15.517286 -6.456243 32.940220 21.643246 -17.065065 65.996376 4.998150 -5.998523 6.996831 -0.000084 -0.141900 -15.796643 14.811826 14.341439 10.208740 -1.981909 -0.080483 13.611595 2.328721 5.489282 -45.881214 -18.374779 -0.031818 77.358597 2.288759 0.176950 15.037885 -1.633111 -5.026803 
-1.012264 7.823059 0.000000 -72.001060 0.000000 0.000000 41.314312 -0.788261 -0.392490 21.732264 -3.063488 -0.711087 5.499487 -20.697842 -9.293877 0.057719 -0.036694 -0.050728 -20.649605 -25.021227 -3.947484 -9.382852 -36.992119 -14.387538 -57.494305 -4.360387 -6.394248 -7.000325 0.000000 0.000000 28.291201 15.517286 -6.456243 32.757534 21.664352 -16.989996 65.996376 4.998150 -5.998523 6.996831 -0.000084 -0.141900 -15.796643 14.811826 14.341439 10.208740 -1.981909 -0.080483 13.611595 2.328721 5.489282 -45.881214 -18.374779 -0.031818 77.358597 2.288759 0.176950 15.037885 -1.633111 -5.026803 
-1.012264 7.823059 0.000000 -72.001060 0.000000 0.000000 41.314312 -0.788261 -0.392490 21.732264 -3.063488 -0.711087 5.548597 -20.828737 -9.364082 0.057719 -0.036694 -0.050728 -20.649605 -25.021227 -3.947484 -9.333709 -37.117085 -14.517566 -57.494305 -4.360387 -6.394248 -7.000325 0.000000 0.000000 28.291201 15.517286 -6.456243 32.574780 21.685692 -16.914963 65.996376 4.998150 -5.998523 6.996831 -0.000084 -0.141900 -15.796643 14.811826 14.341439 10.208740 -1.981909 -0.080483 13.611595 2.328721 5.489282 -45.881214 -18.374779 -0.031818 77.358597 2.288759 0.176950 15.037885 -1.633111 -5.026803 
-1.012264 7.823059 0.000000 -72.001060 0.000000 0.000000 41.314312 -0.788261 -0.392490 21.732264 -3.063488 -0.711087 5.597908 -20.959536 -9.434452 0.057719 -0.036694 -0.050728 -20.649605 -25.021227 -3.947484 -9.284139 -37.241936 -14.647920 -57.494305 -4.360387 -6.394248 -7.000325 0.000000 0.000000 28.291201 15.517286 -6.456243 32.391953 21.707264 -16.839958 65.996376 4.998150 -5.998523 6.996831 -0.000084 -0.141900 -15.796643 14.811826 14.341439 10.208740 -1.981909 -0.080483 13.611595 2.328721 5.489282 -45.881214 -18.374779 -0.031818 77.358597 2.288759 0.176950 15.037883 -1.633111 -5.026803 
-1.012264 7.823059 0.000000 -72.001060 0.000000 0.000000 41.314312 -0.788261 -0.392490 21.732264 -3.063488 -0.711087 5.647422 -21.090248 -9.504986 0.057719 -0.036694 -0.050728 -20.649605 -25.021227 -3.947484 -9.234143 -37.366665 -14.778588 -57.494305 -4.360387 -6.394248 -7.000325 0.000000 0.000000 28.291201 15.517286 -6.456243 32.209057 21.729061 -16.764988 65.996376 4.998150 -5.998523 6.996831 -0.000084 -0.141900 -15.796643 14.811826 14.341439 10.208740 -1.981909 -0.080483 13.611595 2.328721 5.489282 -45.881214 -18.374779 -0.031818 77.358597 2.288759 0.176950 15.037885 -1.633111 -5.026803 
-1.012264 7.823059 0.000000 -72.001060 0.000000 0.000000 41.314312 -0.788261 -0.392490 21.732264 -3.063488 -0.711087 5.697143 -21.220875 -9.575689 0.057719 -0.036694 -0.050728 -20.649605 -25.021227 -3.947484 -9.183721 -37.491280 -14.909586 -57.494305 -4.360387 -6.394248 -7.000325 0.000000 0.000000 28.291201 15.517286 -6.456243 32.026100 21.751097 -16.690056 65.996376 4.998150 -5.998523 6.996831 -0.000084 -0.141900 -15.796643 14.811826 14.341439 10.208740 -1.981909 -0.080483 13.611595 2.328721 5.489282 -45.881214 -18.374779 -0.031818 77.358597 2.288759 0.176950 15.037885 -1.633111 -5.026803 
-1.012264 7.823059 0.000000 -72.001060 0.000000 0.000000 41.314312 -0.788261 -0.392490 21.732264 -3.063488 -0.711087 5.747064 -21.351408 -9.646554 0.057719 -0.036694 -0.050728 -20.649605 -25.021227 -3.947484 -9.132861 -37.615753 -15.040898 -57.494305 -4.360387 -6.394248 -7.000325 0.000000 0.000000 28.291201 15.517286 -6.456243 31.843081 21.773361 -16.615160 65.996376 4.998150 -5.998523 6.996831 -0.000084 -0.141900 -15.796643 14.811826 14.341439 10.208740 -1.981909 -0.080483 13.611595 2.328721 5.489282 -45.881214 -18.374779 -0.031818 77.358597 2.288759 0.176950 15.037885 -1.633111 -5.026803 
-1.012264 7.823059 0.000000 -72.001060 0.000000 0.000000 41.314312 -0.788261 -0.392490 21.732264 -3.063488 -0.711087 5.797192 -21.481842 -9.717586 0.057719 -0.036694 -0.050728 -20.649605 -25.021227 -3.947484 -9.081573 -37.740116 -15.172544 -57.494305 -4.360387 -6.394248 -7.000325 0.000000 0.000000 28.291201 15.517286 -6.456243 31.659979 21.795847 -16.540298 65.996376 4.998150 -5.998523 6.996831 -0.000084 -0.141900 -15.796643 14.811826 14.341439 10.208740 -1.981909 -0.080483 13.611595 2.328721 5.489282 -45.881214 -18.374779 -0.031818 77.358597 2.288759 0.176950 15.037885 -1.633111 -5.026803 
-1.012264 7.823059 0.000000 -72.001060 0.000000 0.000000 41.314312 -0.788261 -0.392490 21.732264 -3.063488 -0.711087 5.847526 -21.612194 -9.788788 0.057719 -0.036694 -0.050728 -20.649605 -25.021227 -3.947484 -9.029847 -37.864346 -15.304516 -57.494305 -4.360387 -6.394248 -7.000325 0.000000 0.000000 28.291201 15.517286 -6.456243 31.476828 21.818573 -16.465481 65.996376 4.998150 -5.998523 6.996831 -0.000084 -0.141900 -15.796643 14.811826 14.341439 10.208740 -1.981909 -0.080483 13.611595 2.328721 5.489282 -45.881214 -18.374779 -0.031818 77.358597 2.288759 0.176950 15.037883 -1.633111 -5.026803 
-1.012264 7.823059 0.000000 -72.001060 0.000000 0.000000 41.314312 -0.788261 -0.392490 21.732264 -3.063488 -0.711087 5.898066 -21.742451 -9.860160 0.057719 -0.036694 -0.050728 -20.649605 -25.021227 -3.947484 -8.977689 -37.988453 -15.436822 -57.494305 -4.360387 -6.394248 -7.000325 0.000000 0.000000 28.291201 15.517286 -6.456243 31.293612 21.841522 -16.390697 65.996376 4.998150 -5.998523 6.996831 -0.000084 -0.141900 -15.796643 14.811826 14.341439 10.208740 -1.981909 -0.080483 13.611595 2.328721 5.489282 -45.881214 -18.374779 -0.031818 77.358597 2.288759 0.176950 15.037885 -1.633111 -5.026803 
-1.012264 7.823059 0.000000 -72.001060 0.000000 0.000000 41.314312 -0.788261 -0.392490 21.732264 -3.063488 -0.711087 5.948812 -21.872610 -9.931698 0.057719 -0.036694 -0.050728 -20.649605 -25.021227 -3.947484 -8.925090 -38.112431 -15.569457 -57.494305 -4.360387 -6.394248 -7.000325 0.000000 0.000000 28.291201 15.517286 -6.456243 31.110336 21.864706 -16.315960 65.996376 4.998150 -5.998523 6.996831 -0.000084 -0.141900 -15.796643 14.811826 14.341439 10.208740 -1.981909 -0.080483 13.611595 2.328721 5.489282 -45.881214 -18.374779 -0.031818 77.358597 2.288759 0.176950 15.037885 -1.633111 -5.026803 
-1.012264 7.823059 0.000000 -72.001060 0.000000 0.000000 41.314312 -0.788261 -0.392490 21.732264 -3.063488 -0.711087 5.999768 -22.002680 -10.003409 0.057719 -0.036694 -0.050728 -20.649605 -25.021227 -3.947484 -8.872049 -38.236275 -15.702428 -57.494305 -4.360387 -6.394248 -7.000325 0.000000 0.000000 28.291201 15.517286 -6.456243 30.927002 21.888121 -16.241262 65.996376 4.998150 -5.998523 6.996831 -0.000084 -0.141900 -15.796643 14.811826 14.341439 10.208740 -1.981909 -0.080483 13.611595 2.328721 5.489282 -45.881214 -18.374779 -0.031818 77.358597 2.288759 0.176950 15.037885 -1.633111 -5.026803 
-1.012264 7.823059 0.000000 -72.001060 0.000000 0.000000 41.314312 -0.788261 -0.392490 21.732264 -3.063488 -0.711087 5.938722 -21.846777 -9.917483 0.057719 -0.036694 -0.050728 -20.649605 -25.021227 -3.947484 -8.818568 -38.359993 -15.835735 -57.494305 -4.360387 -6.394248 -7.000325 0.000000 0.000000 28.291201 15.517286 -6.456243 30.743610 21.911764 -16.166615 65.996376 4.998150 -5.998523 6.996831 -0.000084 -0.141900 -15.796643 14.811826 14.341439 10.208740 -1.981909 -0.080483 13.611595 2.328721 5.489282 -45.881214 -18.374779 -0.031818 77.358597 2.288759 0.176950 15.037883 -1.633111 -5.026803 
-1.012264 7.823059 0.000000 -72.001060 0.000000 0.000000 41.314312 -0.788261 -0.392490 21.732264 -3.063488 -0.711087 5.877973 -21.690739 -9.831800 0.057719 -0.036694 -0.050728 -20.649605 -25.021227 -3.947484 -8.764642 -38.483578 -15.969382 -57.494305 -4.360387 -6.394248 -7.000325 0.000000 0.000000 28.291201 15.517286 -6.456243 30.560158 21.935629 -16.092009 65.996376 4.998150 -5.998523 6.996831 -0.000084 -0.141900 -15.796643 14.811826 14.341439 10.208740 -1.981909 -0.080483 13.611595 2.328721 5.489282 -45.881214 -18.374779 -0.031818 77.358597 2.288759 0.176950 15.037885 -1.633111 -5.026803 
-1.012264 7.823059 0.000000 -72.001060 0.000000 0.000000 41.314312 -0.788261 -0.392490 21.732264 -3.063488 -0.711087 5.817523 -21.534571 -9.746364 0.057719 -0.036694 -0.050728 -20.649605 -25.021227 -3.947484 -8.710272 -38.607021 -16.103365 -57.494305 -4.360387 -6.394248 -7.000325 0.000000 0.000000 28.291201 15.517286 -6.456243 30.376661 21.959734 -16.017450 65.996376 4.998150 -5.998523 6.996831 -0.000084 -0.141900 -15.796643 14.811826 14.341439 10.208740 -1.981909 -0.080483 13.611595 2.328721 5.489282 -45.881214 -18.374779 -0.031818 77.358597 2.288759 0.176950 15.037885 -1.633111 -5.026803 
-1.012264 7.823059 0.000000 -72.001060 0.000000 0.000000 41.314312 -0.788261 -0.392490 21.732264 -3.063488 -0.711087 5.757367 -21.378263 -9.661163 0.057719 -0.036694 -0.050728 -20.649605 -25.021227 -3.947484 -8.655452 -38.730343 -16.237698 -57.494305 -4.360387 -6.394248 -7.000325 0.000000 0.000000 28.291201 15.517286 -6.456243 30.193100 21.984062 -15.942939 65.996376 4.998150 -5.998523 6.996831 -0.000084 -0.141900 -15.796643 14.811826 14.341439 10.208740 -1.981909 -0.080483 13.611595 2.328721 5.489282 -45.881214 -18.374779 -0.031818 77.358597 2.288759 0.176950 15.037885 -1.633111 -5.026803 
-1.012264 7.823059 0.000000 -72.001060 0.000000 0.000000 41.314312 -0.788261 -0.392490 21.732264 -3.063488 -0.711087 5.697509 -21.221834 -9.576210 0.057719 -0.036694 -0.050728 -20.649605 -25.021227 -3.947484 -8.600183 -38.853519 -16.372370 -57.494305 -4.360387 -6.394248 -7.000325 0.000000 0.000000 28.291201 15.517286 -6.456243 30.009491 22.008617 -15.868476 65.996376 4.998150 -5.998523 6.996831 -0.000084 -0.141900 -15.796643 14.811826 14.341439 10.208740 -1.981909 -0.080483 13.611595 2.328721 5.489282 -45.881214 -18.374779 -0.031818 77.358597 2.288759 0.176950 15.037885 -1.633111 -5.026803 
